<svg version="1.1" id="Layer_1" xmlns="http://www.w3.org/2000/svg" xmlns:xlink="http://www.w3.org/1999/xlink" x="0px" y="0px"
	 width="100%" viewBox="0 0 512 512" enable-background="new 0 0 512 512" xml:space="preserve">
<path fill="#010101" opacity="1.000000" stroke="none" 
	d="
M302.000000,513.000000 
	C201.357773,513.000000 101.215538,513.000000 1.036655,513.000000 
	C1.036655,342.399414 1.036655,171.798813 1.036655,1.099110 
	C171.558914,1.099110 342.117889,1.099110 512.838440,1.099110 
	C512.838440,171.666550 512.838440,342.333252 512.838440,513.000000 
	C442.798798,513.000000 372.649384,513.000000 302.000000,513.000000 
M289.571167,411.941986 
	C305.988770,433.366180 322.382507,454.808746 338.853333,476.191986 
	C340.979736,478.952606 343.325470,481.599030 345.875031,483.969940 
	C361.835175,498.811981 386.463898,497.539795 400.866302,481.208862 
	C408.589355,472.451721 410.894928,461.962708 410.889496,450.611542 
	C410.842316,352.455109 410.857941,254.298691 410.854858,156.142258 
	C410.854797,154.221313 410.854858,152.300369 410.854858,149.524536 
	C415.676422,154.012833 419.520416,158.137695 423.906036,161.570618 
	C436.818115,171.677734 451.119446,174.239090 465.998505,166.791168 
	C480.045837,159.759583 487.037933,147.698578 486.794525,131.930847 
	C486.612000,120.106697 480.975403,110.638092 472.783508,102.464745 
	C449.425079,79.159241 426.117432,55.802814 402.747742,32.508556 
	C400.513062,30.281055 398.124115,28.154913 395.569733,26.309877 
	C374.160828,10.846129 344.724701,19.720829 336.190063,44.667969 
	C333.928864,51.277493 333.284973,58.715874 333.270203,65.776543 
	C333.082733,155.433456 333.145813,245.090912 333.145111,334.748230 
	C333.145111,336.667816 333.145111,338.587402 333.145111,341.763123 
	C331.304443,339.495453 330.274414,338.286377 329.308563,337.028076 
	C253.220535,237.899612 177.147934,138.759338 101.016022,39.664612 
	C97.984528,35.718765 94.710403,31.846979 91.007874,28.548447 
	C74.811150,14.118999 50.622353,15.681705 36.344383,31.857918 
	C28.232372,41.048409 26.152802,52.102596 26.156668,63.932678 
	C26.198715,192.585922 26.172203,321.239166 26.222071,449.892395 
	C26.223679,454.038727 26.496937,458.247009 27.232021,462.320190 
	C30.350082,479.597534 44.716267,492.624969 61.885960,494.024658 
	C79.208672,495.436798 95.485222,485.125824 100.939537,468.254120 
	C102.995033,461.895844 103.725380,454.858765 103.738449,448.128540 
	C103.913864,357.804962 103.855331,267.480927 103.854881,177.156998 
	C103.854874,175.252930 103.854889,173.348862 103.854889,169.944885 
	C166.270462,251.284683 227.696320,331.334686 289.571167,411.941986 
z"/>
<path fill="#FDFDFD" opacity="1.000000" stroke="none" 
	d="
M289.346680,411.663330 
	C227.696320,331.334686 166.270462,251.284683 103.854889,169.944885 
	C103.854889,173.348862 103.854874,175.252930 103.854881,177.156998 
	C103.855331,267.480927 103.913864,357.804962 103.738449,448.128540 
	C103.725380,454.858765 102.995033,461.895844 100.939537,468.254120 
	C95.485222,485.125824 79.208672,495.436798 61.885960,494.024658 
	C44.716267,492.624969 30.350082,479.597534 27.232021,462.320190 
	C26.496937,458.247009 26.223679,454.038727 26.222071,449.892395 
	C26.172203,321.239166 26.198715,192.585922 26.156668,63.932678 
	C26.152802,52.102596 28.232372,41.048409 36.344383,31.857918 
	C50.622353,15.681705 74.811150,14.118999 91.007874,28.548447 
	C94.710403,31.846979 97.984528,35.718765 101.016022,39.664612 
	C177.147934,138.759338 253.220535,237.899612 329.308563,337.028076 
	C330.274414,338.286377 331.304443,339.495453 333.145111,341.763123 
	C333.145111,338.587402 333.145111,336.667816 333.145111,334.748230 
	C333.145813,245.090912 333.082733,155.433456 333.270203,65.776543 
	C333.284973,58.715874 333.928864,51.277493 336.190063,44.667969 
	C344.724701,19.720829 374.160828,10.846129 395.569733,26.309877 
	C398.124115,28.154913 400.513062,30.281055 402.747742,32.508556 
	C426.117432,55.802814 449.425079,79.159241 472.783508,102.464745 
	C480.975403,110.638092 486.612000,120.106697 486.794525,131.930847 
	C487.037933,147.698578 480.045837,159.759583 465.998505,166.791168 
	C451.119446,174.239090 436.818115,171.677734 423.906036,161.570618 
	C419.520416,158.137695 415.676422,154.012833 410.854858,149.524536 
	C410.854858,152.300369 410.854797,154.221313 410.854858,156.142258 
	C410.857941,254.298691 410.842316,352.455109 410.889496,450.611542 
	C410.894928,461.962708 408.589355,472.451721 400.866302,481.208862 
	C386.463898,497.539795 361.835175,498.811981 345.875031,483.969940 
	C343.325470,481.599030 340.979736,478.952606 338.853333,476.191986 
	C322.382507,454.808746 305.988770,433.366180 289.346680,411.663330 
z"/>
</svg>