<svg version="1.1" id="Layer_1" xmlns="http://www.w3.org/2000/svg" xmlns:xlink="http://www.w3.org/1999/xlink" x="0px" y="0px"
	 width="100%" viewBox="0 0 1986 518" enable-background="new 0 0 1986 518" xml:space="preserve">
<path fill="#000000" opacity="1.000000" stroke="none" 
	d="
M1277.000000,519.000000 
	C851.333313,519.000000 426.166656,519.000000 1.000000,519.000000 
	C1.000000,346.333344 1.000000,173.666672 1.000000,1.000000 
	C663.000000,1.000000 1325.000000,1.000000 1987.000000,1.000000 
	C1987.000000,173.666672 1987.000000,346.333344 1987.000000,519.000000 
	C1750.500000,519.000000 1514.000000,519.000000 1277.000000,519.000000 
M270.536469,396.029541 
	C281.139832,409.967865 291.736145,423.911591 302.348572,437.843018 
	C312.960632,451.773895 323.615448,465.672272 334.202362,479.622223 
	C344.665619,493.409271 357.996185,499.998505 375.609131,497.057190 
	C394.046448,493.978149 407.924713,477.314514 407.945801,458.946198 
	C408.060028,359.452881 408.000000,259.959381 408.000000,160.465927 
	C408.000000,158.713867 408.000000,156.961807 408.000000,153.679749 
	C412.009979,157.622452 414.920715,160.654037 418.010162,163.490997 
	C428.347717,172.983658 440.599060,177.022003 454.233154,173.744614 
	C469.523956,170.068970 479.751923,160.075287 483.584930,144.713867 
	C487.094421,130.648834 483.234039,117.965523 473.101837,107.710724 
	C447.333344,81.630363 421.334167,55.777462 395.355652,29.905485 
	C388.443146,23.021357 379.803192,19.210543 370.180634,19.117086 
	C345.381134,18.876234 328.105804,35.864700 328.062439,60.696594 
	C327.904419,151.190353 328.006805,241.684555 327.958832,332.178558 
	C327.957703,334.330872 327.343567,336.482849 326.821533,339.905914 
	C326.005524,338.017151 325.896973,337.516449 325.614868,337.148987 
	C315.634094,324.149872 305.627838,311.170380 295.644897,298.172943 
	C285.762177,285.306000 275.948242,272.385864 266.017639,259.556030 
	C254.083313,244.137497 241.976212,228.852234 230.096252,213.392197 
	C219.929565,200.161697 210.074539,186.691666 199.904709,173.463608 
	C189.109085,159.421555 178.005783,145.615952 167.216919,131.568771 
	C153.590897,113.827583 140.159698,95.936859 126.620422,78.128922 
	C116.021088,64.187836 105.609215,50.095860 94.691444,36.408005 
	C86.605629,26.270641 76.245178,19.131981 62.781143,19.105719 
	C38.128529,19.057631 21.097429,35.999722 21.069794,60.597012 
	C20.921875,192.254837 20.993681,323.912933 21.041153,455.570923 
	C21.042202,458.478241 21.675329,461.383484 21.982698,464.292938 
	C24.280952,486.047577 47.132549,501.102203 67.698112,497.153076 
	C87.867073,493.280121 100.800354,477.532959 100.864220,458.181061 
	C101.167809,366.188110 101.000000,274.193634 101.000000,182.199692 
	C101.000000,180.490524 101.000000,178.781357 101.000000,177.009033 
	C102.086342,177.166580 102.559837,177.093414 102.699181,177.275681 
	C113.336639,191.191162 123.897842,205.165176 134.573532,219.051147 
	C148.228607,236.812424 162.016983,254.471252 175.668060,272.235596 
	C187.426498,287.537018 199.078552,302.920258 210.767303,318.275177 
	C221.274597,332.078156 231.726257,345.923676 242.279770,359.691193 
	C251.467438,371.676880 260.763123,383.579803 270.536469,396.029541 
M1229.997925,472.499969 
	C1238.071655,483.718872 1249.218750,490.653351 1262.069946,494.942352 
	C1271.815918,498.194977 1281.891235,498.581268 1292.174072,498.146027 
	C1304.401001,497.628448 1315.681152,494.353973 1326.507080,489.034973 
	C1344.119873,480.381317 1356.089966,466.134888 1364.916626,449.127136 
	C1374.312012,431.023438 1378.052246,411.245728 1378.755737,391.164124 
	C1379.302979,375.542755 1378.733032,359.703064 1376.706543,344.215973 
	C1374.160156,324.755463 1366.938477,306.707703 1355.029053,290.721252 
	C1347.259033,280.291473 1337.442993,272.312103 1325.990479,266.660431 
	C1312.103149,259.807343 1297.353271,256.961365 1281.577881,257.809021 
	C1258.430908,259.052795 1240.800293,269.010651 1228.027100,288.037720 
	C1225.864136,291.259583 1224.088745,294.741547 1222.134277,298.103363 
	C1221.152832,296.202911 1221.009888,294.485687 1221.009644,292.768463 
	C1220.998169,229.279510 1221.004395,165.790573 1220.977783,102.301636 
	C1220.977051,100.514740 1220.862915,98.674019 1220.433594,96.950089 
	C1218.029907,87.298241 1212.667603,79.684006 1204.497314,73.979950 
	C1191.396606,64.833809 1177.380615,62.727104 1162.323120,68.283516 
	C1154.079956,71.325333 1148.034180,77.117188 1141.957275,83.323807 
	C1117.826660,107.969360 1093.260132,132.187759 1068.913330,156.622375 
	C1059.974731,165.593262 1055.604858,176.924347 1056.269897,189.174194 
	C1057.021606,203.021942 1062.836182,215.033157 1074.804565,223.358551 
	C1090.545288,234.307968 1110.430786,234.567780 1126.260498,223.222839 
	C1129.292358,221.050003 1132.204224,218.710007 1136.251221,215.623657 
	C1136.251221,309.843018 1136.251221,402.391968 1136.251221,495.000000 
	C1150.562988,495.000000 1164.393311,495.000000 1178.223755,495.000000 
	C1192.132568,495.000000 1206.041504,495.000000 1220.556641,495.000000 
	C1220.556641,482.190369 1220.556641,470.109650 1220.556641,457.697083 
	C1223.757690,462.824799 1226.616943,467.404755 1229.997925,472.499969 
M909.595825,261.955597 
	C878.653931,251.234650 833.913086,257.782837 815.186523,303.938354 
	C815.186523,289.689789 815.186523,275.441223 815.186523,261.293060 
	C787.679810,261.293060 760.942261,261.293060 734.291260,261.293060 
	C734.291260,339.320953 734.291260,417.055450 734.291260,494.706573 
	C762.654297,494.706573 790.725098,494.706573 819.000000,494.706573 
	C819.000000,492.601562 819.000000,490.788452 819.000000,488.975342 
	C819.000000,446.811859 818.969482,404.648285 819.043823,362.484955 
	C819.051941,357.911285 819.273865,353.268372 820.078491,348.779785 
	C821.920654,338.502808 827.448120,331.373627 837.685486,327.595367 
	C847.895203,323.827301 861.970032,328.037445 868.107727,336.379364 
	C873.584106,343.822510 874.807251,352.226868 874.864990,360.697174 
	C875.157898,403.691956 875.000000,446.689789 875.000000,489.686554 
	C875.000000,491.433228 875.000000,493.179901 875.000000,494.642944 
	C902.448914,494.642944 929.187561,494.642944 956.000000,494.642944 
	C956.000000,448.459045 955.825378,402.631104 956.109253,356.805969 
	C956.191467,343.535706 962.128845,329.505371 979.010559,326.316589 
	C986.509460,324.900146 1000.701233,329.437317 1005.340088,336.469910 
	C1009.957336,343.469635 1011.863586,350.977692 1011.901245,358.890076 
	C1012.108032,402.385834 1012.000000,445.883057 1012.000000,489.379791 
	C1012.000000,491.155853 1012.000000,492.931946 1012.000000,494.751495 
	C1040.563843,494.751495 1068.634277,494.751495 1097.000000,494.751495 
	C1097.000000,492.705200 1097.000000,490.903809 1097.000000,489.102417 
	C1097.000000,439.606140 1097.151489,390.108978 1096.864746,340.614380 
	C1096.811157,331.372772 1095.877563,321.941833 1093.832153,312.943298 
	C1088.093384,287.695343 1072.551880,270.548645 1048.226440,261.754730 
	C1033.384277,256.389130 1017.824829,256.085144 1002.640198,259.212769 
	C984.117981,263.027863 967.881409,271.554260 957.388916,288.233887 
	C954.063232,293.520599 951.630066,299.368774 948.500122,305.527435 
	C943.770691,283.645844 930.634033,269.659027 909.595825,261.955597 
M465.533691,261.000000 
	C462.426270,261.000000 459.318848,261.000000 456.000000,261.000000 
	C456.000000,263.356628 456.000000,265.167206 456.000000,266.977814 
	C456.000000,314.475494 456.127350,361.973663 455.937134,409.470581 
	C455.861389,428.388519 459.794830,446.056549 469.714142,462.303680 
	C478.592865,476.846375 491.092896,486.864685 506.890747,493.046112 
	C519.688538,498.053711 532.916992,498.874725 546.451965,498.051025 
	C557.241150,497.394409 567.555969,494.910919 577.042419,489.909454 
	C591.893250,482.079865 602.845337,470.462006 609.049194,454.634308 
	C609.362732,453.834351 610.456909,453.340302 612.057251,451.946228 
	C612.057251,467.086487 612.057251,480.856110 612.057251,494.790833 
	C639.149963,494.790833 665.887512,494.790833 692.790466,494.790833 
	C692.790466,416.845886 692.790466,339.110138 692.790466,261.212463 
	C664.509888,261.212463 636.439087,261.212463 608.000000,261.212463 
	C608.000000,263.044739 608.000000,264.670288 608.000000,266.295868 
	C608.000000,304.294006 608.042725,342.292236 607.955383,380.290192 
	C607.941772,386.206573 607.259338,392.118530 607.017273,398.037872 
	C606.456604,411.745941 599.717590,421.301392 587.371399,426.835571 
	C578.018188,431.028168 559.678406,429.970764 551.340393,420.987305 
	C544.427490,413.539276 541.143799,404.778320 541.094116,395.024872 
	C540.875916,352.194763 541.000000,309.362915 541.000000,266.531677 
	C541.000000,264.764008 541.000000,262.996368 541.000000,261.000000 
	C515.804626,261.000000 491.163849,261.000000 465.533691,261.000000 
M1639.573730,258.000000 
	C1626.729736,258.682617 1614.353149,261.440521 1602.311646,265.977692 
	C1583.014771,273.248871 1567.281250,285.377777 1555.124634,301.767151 
	C1538.738892,323.857605 1532.718018,349.527954 1532.132080,376.521454 
	C1531.827759,390.547150 1533.415771,404.535004 1536.994263,418.206665 
	C1543.620728,443.524109 1556.877930,464.242584 1578.655884,479.275269 
	C1599.507812,493.668610 1623.127319,498.646545 1647.809692,499.901093 
	C1654.193848,500.225555 1660.636597,499.222809 1667.058350,499.022949 
	C1680.774780,498.596039 1693.928101,495.754028 1706.856689,491.108429 
	C1731.609131,482.214081 1750.676636,467.078217 1761.629150,442.744232 
	C1764.980835,435.297607 1768.419434,427.731354 1766.576416,419.000092 
	C1742.177734,419.000092 1718.025879,418.967804 1693.874756,419.089386 
	C1692.579224,419.095917 1690.650146,420.066010 1690.094727,421.143616 
	C1682.384644,436.100983 1668.510986,439.781342 1653.669312,439.732819 
	C1642.212646,439.695404 1631.636963,435.579773 1624.199951,425.749298 
	C1617.971924,417.516724 1615.734253,408.312836 1616.070312,397.789337 
	C1667.352173,397.789337 1718.085449,397.789337 1769.463623,397.789337 
	C1768.958252,389.469330 1767.997803,381.573578 1768.098877,373.691437 
	C1768.318359,356.550293 1765.231567,340.083160 1758.946167,324.232086 
	C1751.619751,305.755493 1740.359985,290.083496 1723.993042,278.571350 
	C1704.252197,264.686188 1682.120361,258.024231 1657.989746,258.000824 
	C1652.171265,257.995178 1646.352783,258.000000 1639.573730,258.000000 
M1414.000000,324.500000 
	C1414.000000,381.260040 1414.000000,438.020111 1414.000000,494.711182 
	C1442.644043,494.711182 1470.715332,494.711182 1498.714111,494.711182 
	C1498.714111,356.688507 1498.714111,218.954849 1498.714111,81.288849 
	C1470.355957,81.288849 1442.284668,81.288849 1414.000000,81.288849 
	C1414.000000,162.218338 1414.000000,242.859161 1414.000000,324.500000 
M1864.500000,495.000000 
	C1871.931396,495.000000 1879.362793,495.000000 1887.000000,495.000000 
	C1887.000000,492.784180 1887.000000,491.139923 1887.000000,489.495667 
	C1887.000000,452.006897 1886.963501,414.518036 1887.044312,377.029449 
	C1887.054932,372.122894 1887.252075,367.145691 1888.087524,362.326904 
	C1889.784424,352.540894 1894.808960,344.366974 1902.500610,338.251251 
	C1915.828247,327.654419 1931.283813,327.791168 1947.052856,330.521118 
	C1951.587769,331.306213 1956.098511,332.231873 1960.999146,333.165161 
	C1960.999146,309.475891 1961.036987,286.337402 1960.880005,263.200226 
	C1960.872559,262.122711 1959.318604,260.458527 1958.156372,260.082153 
	C1950.063965,257.461700 1941.730347,257.536835 1933.304565,257.926056 
	C1920.941284,258.497101 1910.761108,264.107971 1902.508301,272.415253 
	C1895.387695,279.582642 1890.445435,288.644012 1887.934814,298.748505 
	C1887.380493,300.979370 1886.148560,303.041870 1885.228516,305.181915 
	C1884.779297,305.047089 1884.330078,304.912262 1883.880859,304.777405 
	C1883.880859,290.234314 1883.880859,275.691223 1883.880859,261.311310 
	C1856.301025,261.311310 1829.234131,261.311310 1802.291016,261.311310 
	C1802.291016,339.345123 1802.291016,417.067322 1802.291016,495.000000 
	C1822.887573,495.000000 1843.193726,495.000000 1864.500000,495.000000 
z"/>
<path fill="#FFFFFF" opacity="1.000000" stroke="none" 
	d="
M270.273773,395.774414 
	C260.763123,383.579803 251.467438,371.676880 242.279770,359.691193 
	C231.726257,345.923676 221.274597,332.078156 210.767303,318.275177 
	C199.078552,302.920258 187.426498,287.537018 175.668060,272.235596 
	C162.016983,254.471252 148.228607,236.812424 134.573532,219.051147 
	C123.897842,205.165176 113.336639,191.191162 102.699181,177.275681 
	C102.559837,177.093414 102.086342,177.166580 101.000000,177.009033 
	C101.000000,178.781357 101.000000,180.490524 101.000000,182.199692 
	C101.000000,274.193634 101.167809,366.188110 100.864220,458.181061 
	C100.800354,477.532959 87.867073,493.280121 67.698112,497.153076 
	C47.132549,501.102203 24.280952,486.047577 21.982698,464.292938 
	C21.675329,461.383484 21.042202,458.478241 21.041153,455.570923 
	C20.993681,323.912933 20.921875,192.254837 21.069794,60.597012 
	C21.097429,35.999722 38.128529,19.057631 62.781143,19.105719 
	C76.245178,19.131981 86.605629,26.270641 94.691444,36.408005 
	C105.609215,50.095860 116.021088,64.187836 126.620422,78.128922 
	C140.159698,95.936859 153.590897,113.827583 167.216919,131.568771 
	C178.005783,145.615952 189.109085,159.421555 199.904709,173.463608 
	C210.074539,186.691666 219.929565,200.161697 230.096252,213.392197 
	C241.976212,228.852234 254.083313,244.137497 266.017639,259.556030 
	C275.948242,272.385864 285.762177,285.306000 295.644897,298.172943 
	C305.627838,311.170380 315.634094,324.149872 325.614868,337.148987 
	C325.896973,337.516449 326.005524,338.017151 326.821533,339.905914 
	C327.343567,336.482849 327.957703,334.330872 327.958832,332.178558 
	C328.006805,241.684555 327.904419,151.190353 328.062439,60.696594 
	C328.105804,35.864700 345.381134,18.876234 370.180634,19.117086 
	C379.803192,19.210543 388.443146,23.021357 395.355652,29.905485 
	C421.334167,55.777462 447.333344,81.630363 473.101837,107.710724 
	C483.234039,117.965523 487.094421,130.648834 483.584930,144.713867 
	C479.751923,160.075287 469.523956,170.068970 454.233154,173.744614 
	C440.599060,177.022003 428.347717,172.983658 418.010162,163.490997 
	C414.920715,160.654037 412.009979,157.622452 408.000000,153.679749 
	C408.000000,156.961807 408.000000,158.713867 408.000000,160.465927 
	C408.000000,259.959381 408.060028,359.452881 407.945801,458.946198 
	C407.924713,477.314514 394.046448,493.978149 375.609131,497.057190 
	C357.996185,499.998505 344.665619,493.409271 334.202362,479.622223 
	C323.615448,465.672272 312.960632,451.773895 302.348572,437.843018 
	C291.736145,423.911591 281.139832,409.967865 270.273773,395.774414 
z"/>
<path fill="#FFFFFF" opacity="1.000000" stroke="none" 
	d="
M1229.737061,472.242371 
	C1226.616943,467.404755 1223.757690,462.824799 1220.556641,457.697083 
	C1220.556641,470.109650 1220.556641,482.190369 1220.556641,495.000000 
	C1206.041504,495.000000 1192.132568,495.000000 1178.223755,495.000000 
	C1164.393311,495.000000 1150.562988,495.000000 1136.251221,495.000000 
	C1136.251221,402.391968 1136.251221,309.843018 1136.251221,215.623657 
	C1132.204224,218.710007 1129.292358,221.050003 1126.260498,223.222839 
	C1110.430786,234.567780 1090.545288,234.307968 1074.804565,223.358551 
	C1062.836182,215.033157 1057.021606,203.021942 1056.269897,189.174194 
	C1055.604858,176.924347 1059.974731,165.593262 1068.913330,156.622375 
	C1093.260132,132.187759 1117.826660,107.969360 1141.957275,83.323807 
	C1148.034180,77.117188 1154.079956,71.325333 1162.323120,68.283516 
	C1177.380615,62.727104 1191.396606,64.833809 1204.497314,73.979950 
	C1212.667603,79.684006 1218.029907,87.298241 1220.433594,96.950089 
	C1220.862915,98.674019 1220.977051,100.514740 1220.977783,102.301636 
	C1221.004395,165.790573 1220.998169,229.279510 1221.009644,292.768463 
	C1221.009888,294.485687 1221.152832,296.202911 1222.134277,298.103363 
	C1224.088745,294.741547 1225.864136,291.259583 1228.027100,288.037720 
	C1240.800293,269.010651 1258.430908,259.052795 1281.577881,257.809021 
	C1297.353271,256.961365 1312.103149,259.807343 1325.990479,266.660431 
	C1337.442993,272.312103 1347.259033,280.291473 1355.029053,290.721252 
	C1366.938477,306.707703 1374.160156,324.755463 1376.706543,344.215973 
	C1378.733032,359.703064 1379.302979,375.542755 1378.755737,391.164124 
	C1378.052246,411.245728 1374.312012,431.023438 1364.916626,449.127136 
	C1356.089966,466.134888 1344.119873,480.381317 1326.507080,489.034973 
	C1315.681152,494.353973 1304.401001,497.628448 1292.174072,498.146027 
	C1281.891235,498.581268 1271.815918,498.194977 1262.069946,494.942352 
	C1249.218750,490.653351 1238.071655,483.718872 1229.737061,472.242371 
M1289.045776,356.360046 
	C1288.009521,348.708679 1284.718872,342.120453 1280.412354,335.725403 
	C1269.305420,319.232208 1242.815918,318.211639 1230.079712,335.861420 
	C1223.863037,344.476349 1220.975586,354.336761 1219.826416,365.012848 
	C1217.888306,383.015778 1218.707275,400.336273 1227.920654,416.507965 
	C1233.643311,426.552826 1242.201904,432.444580 1253.656128,432.891205 
	C1273.388550,433.660614 1283.095459,421.109985 1287.889038,405.245422 
	C1292.663696,389.444183 1291.903198,373.222534 1289.045776,356.360046 
z"/>
<path fill="#FFFFFF" opacity="1.000000" stroke="none" 
	d="
M910.003052,261.977112 
	C930.634033,269.659027 943.770691,283.645844 948.500122,305.527435 
	C951.630066,299.368774 954.063232,293.520599 957.388916,288.233887 
	C967.881409,271.554260 984.117981,263.027863 1002.640198,259.212769 
	C1017.824829,256.085144 1033.384277,256.389130 1048.226440,261.754730 
	C1072.551880,270.548645 1088.093384,287.695343 1093.832153,312.943298 
	C1095.877563,321.941833 1096.811157,331.372772 1096.864746,340.614380 
	C1097.151489,390.108978 1097.000000,439.606140 1097.000000,489.102417 
	C1097.000000,490.903809 1097.000000,492.705200 1097.000000,494.751495 
	C1068.634277,494.751495 1040.563843,494.751495 1012.000000,494.751495 
	C1012.000000,492.931946 1012.000000,491.155853 1012.000000,489.379791 
	C1012.000000,445.883057 1012.108032,402.385834 1011.901245,358.890076 
	C1011.863586,350.977692 1009.957336,343.469635 1005.340088,336.469910 
	C1000.701233,329.437317 986.509460,324.900146 979.010559,326.316589 
	C962.128845,329.505371 956.191467,343.535706 956.109253,356.805969 
	C955.825378,402.631104 956.000000,448.459045 956.000000,494.642944 
	C929.187561,494.642944 902.448914,494.642944 875.000000,494.642944 
	C875.000000,493.179901 875.000000,491.433228 875.000000,489.686554 
	C875.000000,446.689789 875.157898,403.691956 874.864990,360.697174 
	C874.807251,352.226868 873.584106,343.822510 868.107727,336.379364 
	C861.970032,328.037445 847.895203,323.827301 837.685486,327.595367 
	C827.448120,331.373627 821.920654,338.502808 820.078491,348.779785 
	C819.273865,353.268372 819.051941,357.911285 819.043823,362.484955 
	C818.969482,404.648285 819.000000,446.811859 819.000000,488.975342 
	C819.000000,490.788452 819.000000,492.601562 819.000000,494.706573 
	C790.725098,494.706573 762.654297,494.706573 734.291260,494.706573 
	C734.291260,417.055450 734.291260,339.320953 734.291260,261.293060 
	C760.942261,261.293060 787.679810,261.293060 815.186523,261.293060 
	C815.186523,275.441223 815.186523,289.689789 815.186523,303.938354 
	C833.913086,257.782837 878.653931,251.234650 910.003052,261.977112 
z"/>
<path fill="#FFFFFF" opacity="1.000000" stroke="none" 
	d="
M466.028381,261.000000 
	C491.163849,261.000000 515.804626,261.000000 541.000000,261.000000 
	C541.000000,262.996368 541.000000,264.764008 541.000000,266.531677 
	C541.000000,309.362915 540.875916,352.194763 541.094116,395.024872 
	C541.143799,404.778320 544.427490,413.539276 551.340393,420.987305 
	C559.678406,429.970764 578.018188,431.028168 587.371399,426.835571 
	C599.717590,421.301392 606.456604,411.745941 607.017273,398.037872 
	C607.259338,392.118530 607.941772,386.206573 607.955383,380.290192 
	C608.042725,342.292236 608.000000,304.294006 608.000000,266.295868 
	C608.000000,264.670288 608.000000,263.044739 608.000000,261.212463 
	C636.439087,261.212463 664.509888,261.212463 692.790466,261.212463 
	C692.790466,339.110138 692.790466,416.845886 692.790466,494.790833 
	C665.887512,494.790833 639.149963,494.790833 612.057251,494.790833 
	C612.057251,480.856110 612.057251,467.086487 612.057251,451.946228 
	C610.456909,453.340302 609.362732,453.834351 609.049194,454.634308 
	C602.845337,470.462006 591.893250,482.079865 577.042419,489.909454 
	C567.555969,494.910919 557.241150,497.394409 546.451965,498.051025 
	C532.916992,498.874725 519.688538,498.053711 506.890747,493.046112 
	C491.092896,486.864685 478.592865,476.846375 469.714142,462.303680 
	C459.794830,446.056549 455.861389,428.388519 455.937134,409.470581 
	C456.127350,361.973663 456.000000,314.475494 456.000000,266.977814 
	C456.000000,265.167206 456.000000,263.356628 456.000000,261.000000 
	C459.318848,261.000000 462.426270,261.000000 466.028381,261.000000 
z"/>
<path fill="#FFFFFF" opacity="1.000000" stroke="none" 
	d="
M1640.053955,258.000000 
	C1646.352783,258.000000 1652.171265,257.995178 1657.989746,258.000824 
	C1682.120361,258.024231 1704.252197,264.686188 1723.993042,278.571350 
	C1740.359985,290.083496 1751.619751,305.755493 1758.946167,324.232086 
	C1765.231567,340.083160 1768.318359,356.550293 1768.098877,373.691437 
	C1767.997803,381.573578 1768.958252,389.469330 1769.463623,397.789337 
	C1718.085449,397.789337 1667.352173,397.789337 1616.070312,397.789337 
	C1615.734253,408.312836 1617.971924,417.516724 1624.199951,425.749298 
	C1631.636963,435.579773 1642.212646,439.695404 1653.669312,439.732819 
	C1668.510986,439.781342 1682.384644,436.100983 1690.094727,421.143616 
	C1690.650146,420.066010 1692.579224,419.095917 1693.874756,419.089386 
	C1718.025879,418.967804 1742.177734,419.000092 1766.576416,419.000092 
	C1768.419434,427.731354 1764.980835,435.297607 1761.629150,442.744232 
	C1750.676636,467.078217 1731.609131,482.214081 1706.856689,491.108429 
	C1693.928101,495.754028 1680.774780,498.596039 1667.058350,499.022949 
	C1660.636597,499.222809 1654.193848,500.225555 1647.809692,499.901093 
	C1623.127319,498.646545 1599.507812,493.668610 1578.655884,479.275269 
	C1556.877930,464.242584 1543.620728,443.524109 1536.994263,418.206665 
	C1533.415771,404.535004 1531.827759,390.547150 1532.132080,376.521454 
	C1532.718018,349.527954 1538.738892,323.857605 1555.124634,301.767151 
	C1567.281250,285.377777 1583.014771,273.248871 1602.311646,265.977692 
	C1614.353149,261.440521 1626.729736,258.682617 1640.053955,258.000000 
M1616.996826,346.437378 
	C1616.614014,347.799194 1616.231201,349.161041 1615.786987,350.741028 
	C1640.751831,350.741028 1665.313232,350.741028 1689.864014,350.741028 
	C1690.205933,341.482422 1684.669678,331.413635 1677.755371,325.862793 
	C1669.734009,319.423248 1660.781494,317.823730 1650.911865,317.919617 
	C1635.864990,318.065826 1619.728516,329.050232 1616.996826,346.437378 
z"/>
<path fill="#FFFFFF" opacity="1.000000" stroke="none" 
	d="
M1414.000000,324.000000 
	C1414.000000,242.859161 1414.000000,162.218338 1414.000000,81.288849 
	C1442.284668,81.288849 1470.355957,81.288849 1498.714111,81.288849 
	C1498.714111,218.954849 1498.714111,356.688507 1498.714111,494.711182 
	C1470.715332,494.711182 1442.644043,494.711182 1414.000000,494.711182 
	C1414.000000,438.020111 1414.000000,381.260040 1414.000000,324.000000 
z"/>
<path fill="#FFFFFF" opacity="1.000000" stroke="none" 
	d="
M1864.000000,495.000000 
	C1843.193726,495.000000 1822.887573,495.000000 1802.291016,495.000000 
	C1802.291016,417.067322 1802.291016,339.345123 1802.291016,261.311310 
	C1829.234131,261.311310 1856.301025,261.311310 1883.880859,261.311310 
	C1883.880859,275.691223 1883.880859,290.234314 1883.880859,304.777405 
	C1884.330078,304.912262 1884.779297,305.047089 1885.228516,305.181915 
	C1886.148560,303.041870 1887.380493,300.979370 1887.934814,298.748505 
	C1890.445435,288.644012 1895.387695,279.582642 1902.508301,272.415253 
	C1910.761108,264.107971 1920.941284,258.497101 1933.304565,257.926056 
	C1941.730347,257.536835 1950.063965,257.461700 1958.156372,260.082153 
	C1959.318604,260.458527 1960.872559,262.122711 1960.880005,263.200226 
	C1961.036987,286.337402 1960.999146,309.475891 1960.999146,333.165161 
	C1956.098511,332.231873 1951.587769,331.306213 1947.052856,330.521118 
	C1931.283813,327.791168 1915.828247,327.654419 1902.500610,338.251251 
	C1894.808960,344.366974 1889.784424,352.540894 1888.087524,362.326904 
	C1887.252075,367.145691 1887.054932,372.122894 1887.044312,377.029449 
	C1886.963501,414.518036 1887.000000,452.006897 1887.000000,489.495667 
	C1887.000000,491.139923 1887.000000,492.784180 1887.000000,495.000000 
	C1879.362793,495.000000 1871.931396,495.000000 1864.000000,495.000000 
z"/>
<path fill="#000000" opacity="1.000000" stroke="none" 
	d="
M1289.307861,356.707458 
	C1291.903198,373.222534 1292.663696,389.444183 1287.889038,405.245422 
	C1283.095459,421.109985 1273.388550,433.660614 1253.656128,432.891205 
	C1242.201904,432.444580 1233.643311,426.552826 1227.920654,416.507965 
	C1218.707275,400.336273 1217.888306,383.015778 1219.826416,365.012848 
	C1220.975586,354.336761 1223.863037,344.476349 1230.079712,335.861420 
	C1242.815918,318.211639 1269.305420,319.232208 1280.412354,335.725403 
	C1284.718872,342.120453 1288.009521,348.708679 1289.307861,356.707458 
z"/>
<path fill="#000000" opacity="1.000000" stroke="none" 
	d="
M1616.998413,346.006897 
	C1619.728516,329.050232 1635.864990,318.065826 1650.911865,317.919617 
	C1660.781494,317.823730 1669.734009,319.423248 1677.755371,325.862793 
	C1684.669678,331.413635 1690.205933,341.482422 1689.864014,350.741028 
	C1665.313232,350.741028 1640.751831,350.741028 1615.786987,350.741028 
	C1616.231201,349.161041 1616.614014,347.799194 1616.998413,346.006897 
z"/>
</svg>